<svg width="192" height="166" viewBox="0 0 192 166" fill="none" xmlns="http://www.w3.org/2000/svg">
<path d="M191.822 157.139C191.822 159.489 190.915 161.743 189.301 163.405C187.687 165.066 185.497 166 183.215 166H45.4961C43.2133 166 41.0239 165.066 39.4097 163.405C37.7955 161.743 36.8887 159.489 36.8887 157.139V64.0094C36.8878 62.6591 37.1866 61.3265 37.7625 60.1132C38.3383 58.9 39.1758 57.8383 40.2111 57.0092L109.07 1.86697C110.581 0.656953 112.441 0 114.355 0C116.27 0 118.129 0.656953 119.64 1.86697L188.5 57.0092C189.535 57.8383 190.372 58.9 190.948 60.1132C191.524 61.3265 191.823 62.6591 191.822 64.0094V157.139Z" fill="#CE6E6E"/>
<path d="M154.933 157.139C154.933 159.489 154.026 161.743 152.412 163.405C150.798 165.066 148.609 166 146.326 166H8.60741C6.32458 166 4.13525 165.066 2.52105 163.405C0.906851 161.743 2.07189e-06 159.489 2.07189e-06 157.139V64.0094C-0.000907941 62.6591 0.297964 61.3265 0.87379 60.1132C1.44962 58.9 2.28716 57.8383 3.32246 57.0092L72.1817 1.86697C73.6927 0.656953 75.5524 0 77.4667 0C79.381 0 81.2406 0.656953 82.7516 1.86697L151.611 57.0092C152.646 57.8383 153.484 58.9 154.06 60.1132C154.635 61.3265 154.934 62.6591 154.933 64.0094V157.139Z" fill="#DC0E62"/>
<path d="M84.0393 130.965C81.3769 133.417 77.2783 133.417 74.6159 130.93L74.2306 130.574C55.8393 113.695 43.8237 102.643 44.2791 88.8545C44.4893 82.8133 47.537 77.0208 52.4764 73.6093C61.7245 67.2127 73.1446 70.1978 79.3101 77.5183C85.4755 70.1978 96.8956 67.1772 106.144 73.6093C111.083 77.0208 114.131 82.8133 114.341 88.8545C114.831 102.643 102.781 113.695 84.3896 130.646L84.0393 130.965Z" fill="white"/>
</svg>
