<svg width="160" height="160" viewBox="0 0 160 160" fill="none" xmlns="http://www.w3.org/2000/svg">
<circle cx="80" cy="80" r="80" fill="#F8CFE0"/>
<g clip-path="url(#clip0_796_494)">
<path fill-rule="evenodd" clip-rule="evenodd" d="M89.3789 63.3646L99.6393 73.7617V78.651H94.7826V74.9727H90.7591V70.9492H86.9115L85.7982 67.3229C84.0273 68.5078 81.8724 69.1979 79.5612 69.1979C73.4935 69.1979 68.5716 64.4518 68.5716 58.599C68.5716 52.7461 73.4935 48 79.5612 48C85.6289 48 90.5508 52.7461 90.5508 58.599C90.5508 60.3112 90.1276 61.9323 89.3789 63.3646ZM39.4375 77.6029H55.6029V106.366H39.4375V77.6029ZM58.8581 103.951V79.9141H69.6719C74.2552 80.7344 78.8385 83.2214 83.4219 86.1055H91.8203C95.6224 86.3333 97.6146 90.1875 93.9167 92.7201C90.9674 94.8815 87.0872 94.7578 83.1029 94.3997C80.3555 94.263 80.2383 97.9544 83.1029 97.9674C84.099 98.0456 85.1797 97.8112 86.1237 97.8112C91.0911 97.8047 95.1862 96.8542 97.6927 92.9284L98.9492 89.9922L111.443 83.8008C117.693 81.7435 122.133 88.2799 117.53 92.8307C108.487 99.4063 99.2096 104.823 89.7175 109.198C82.8229 113.391 75.9284 113.247 69.0404 109.198L58.8581 103.951ZM77.9792 55.207C79.0599 55.207 79.9388 56.0859 79.9388 57.1667C79.9388 58.2474 79.0599 59.1263 77.9792 59.1263C76.8919 59.1263 76.0195 58.2474 76.0195 57.1667C76.0195 56.0794 76.8984 55.207 77.9792 55.207Z" fill="#DC0E62"/>
</g>
<defs>
<clipPath id="clip0_796_494">
<rect width="80" height="64.2904" fill="white" transform="translate(39.4375 48)"/>
</clipPath>
</defs>
</svg>
