<svg width="24" height="24" viewBox="0 0 24 24" fill="none" xmlns="http://www.w3.org/2000/svg">
<g clip-path="url(#clip0_119_3824)">
<path fill-rule="evenodd" clip-rule="evenodd" d="M19.5 0H4.5C2.01474 0 0 2.01474 0 4.5V19.5C0 21.9853 2.01474 24 4.5 24H19.5C21.9853 24 24 21.9853 24 19.5V4.5C24 2.01474 21.9853 0 19.5 0ZM18.8905 12.9253H16.6453V21.2368H12.8937V12.9253H11.4379V10.1242H12.8937V8.34C12.8937 6.00316 13.8663 4.61368 16.62 4.61368H19.4116V7.40211H17.7884C16.7147 7.40211 16.6453 7.80316 16.6453 8.54842L16.6421 10.1211H19.1937L18.8874 12.9221L18.8905 12.9253Z" fill="#3B5998"/>
</g>
<defs>
<clipPath id="clip0_119_3824">
<rect width="24" height="24" fill="white"/>
</clipPath>
</defs>
</svg>
