<svg width="24" height="24" viewBox="0 0 24 24" fill="none" xmlns="http://www.w3.org/2000/svg">
<mask id="mask0_119_3806" style="mask-type:luminance" maskUnits="userSpaceOnUse" x="0" y="0" width="24" height="24">
<path d="M23.1818 9.81818H12V14.4545H18.4364C17.8364 17.4 15.3273 19.0909 12 19.0909C8.07273 19.0909 4.90909 15.9273 4.90909 12C4.90909 8.07273 8.07273 4.90909 12 4.90909C13.6909 4.90909 15.2182 5.5091 16.4182 6.49092L19.9091 3C17.7818 1.14545 15.0545 0 12 0C5.34545 0 0 5.34545 0 12C0 18.6545 5.34545 24 12 24C18 24 23.4545 19.6364 23.4545 12C23.4545 11.2909 23.3455 10.5273 23.1818 9.81818Z" fill="white"/>
</mask>
<g mask="url(#mask0_119_3806)">
<path d="M-1.0918 19.0909V4.90906L8.18093 12L-1.0918 19.0909Z" fill="#FBBC05"/>
</g>
<mask id="mask1_119_3806" style="mask-type:luminance" maskUnits="userSpaceOnUse" x="0" y="0" width="24" height="24">
<path d="M23.1818 9.81818H12V14.4545H18.4364C17.8364 17.4 15.3273 19.0909 12 19.0909C8.07273 19.0909 4.90909 15.9273 4.90909 12C4.90909 8.07273 8.07273 4.90909 12 4.90909C13.6909 4.90909 15.2182 5.5091 16.4182 6.49092L19.9091 3C17.7818 1.14545 15.0545 0 12 0C5.34545 0 0 5.34545 0 12C0 18.6545 5.34545 24 12 24C18 24 23.4545 19.6364 23.4545 12C23.4545 11.2909 23.3455 10.5273 23.1818 9.81818Z" fill="white"/>
</mask>
<g mask="url(#mask1_119_3806)">
<path d="M-1.0918 4.90906L8.18093 12L11.9991 8.67271L25.09 6.54542V-1.09094H-1.0918V4.90906Z" fill="#EA4335"/>
</g>
<mask id="mask2_119_3806" style="mask-type:luminance" maskUnits="userSpaceOnUse" x="0" y="0" width="24" height="24">
<path d="M23.1818 9.81818H12V14.4545H18.4364C17.8364 17.4 15.3273 19.0909 12 19.0909C8.07273 19.0909 4.90909 15.9273 4.90909 12C4.90909 8.07273 8.07273 4.90909 12 4.90909C13.6909 4.90909 15.2182 5.5091 16.4182 6.49092L19.9091 3C17.7818 1.14545 15.0545 0 12 0C5.34545 0 0 5.34545 0 12C0 18.6545 5.34545 24 12 24C18 24 23.4545 19.6364 23.4545 12C23.4545 11.2909 23.3455 10.5273 23.1818 9.81818Z" fill="white"/>
</mask>
<g mask="url(#mask2_119_3806)">
<path d="M-1.0918 19.0909L15.2718 6.54542L19.5809 7.09088L25.09 -1.09094V25.0909H-1.0918V19.0909Z" fill="#34A853"/>
</g>
<mask id="mask3_119_3806" style="mask-type:luminance" maskUnits="userSpaceOnUse" x="0" y="0" width="24" height="24">
<path d="M23.1818 9.81818H12V14.4545H18.4364C17.8364 17.4 15.3273 19.0909 12 19.0909C8.07273 19.0909 4.90909 15.9273 4.90909 12C4.90909 8.07273 8.07273 4.90909 12 4.90909C13.6909 4.90909 15.2182 5.5091 16.4182 6.49092L19.9091 3C17.7818 1.14545 15.0545 0 12 0C5.34545 0 0 5.34545 0 12C0 18.6545 5.34545 24 12 24C18 24 23.4545 19.6364 23.4545 12C23.4545 11.2909 23.3455 10.5273 23.1818 9.81818Z" fill="white"/>
</mask>
<g mask="url(#mask3_119_3806)">
<path d="M25.0909 25.0909L8.18182 12L6 10.3636L25.0909 4.90906V25.0909Z" fill="#4285F4"/>
</g>
</svg>
