<svg width="360" height="20" viewBox="0 0 360 20" fill="none" xmlns="http://www.w3.org/2000/svg">
<rect y="9.5" width="157" height="1" fill="#D2D0D2"/>
<path d="M177.395 15.1591C176.705 15.1591 176.101 14.995 175.58 14.6669C175.063 14.3388 174.659 13.8797 174.367 13.2898C174.079 12.6998 173.935 12.0104 173.935 11.2216C173.935 10.4261 174.079 9.73177 174.367 9.13849C174.659 8.54522 175.063 8.08452 175.58 7.75639C176.101 7.42827 176.705 7.2642 177.395 7.2642C178.084 7.2642 178.688 7.42827 179.205 7.75639C179.725 8.08452 180.129 8.54522 180.418 9.13849C180.709 9.73177 180.855 10.4261 180.855 11.2216C180.855 12.0104 180.709 12.6998 180.418 13.2898C180.129 13.8797 179.725 14.3388 179.205 14.6669C178.688 14.995 178.084 15.1591 177.395 15.1591ZM177.395 14.1051C177.919 14.1051 178.349 13.9709 178.688 13.7024C179.026 13.4339 179.276 13.081 179.438 12.6435C179.601 12.206 179.682 11.732 179.682 11.2216C179.682 10.7112 179.601 10.2356 179.438 9.79474C179.276 9.35393 179.026 8.99763 178.688 8.72585C178.349 8.45407 177.919 8.31818 177.395 8.31818C176.871 8.31818 176.44 8.45407 176.102 8.72585C175.764 8.99763 175.514 9.35393 175.352 9.79474C175.189 10.2356 175.108 10.7112 175.108 11.2216C175.108 11.732 175.189 12.206 175.352 12.6435C175.514 13.081 175.764 13.4339 176.102 13.7024C176.44 13.9709 176.871 14.1051 177.395 14.1051ZM182.646 15V7.36364H183.78V8.51705H183.859C183.998 8.1392 184.25 7.83262 184.615 7.5973C184.979 7.36198 185.39 7.24432 185.848 7.24432C185.934 7.24432 186.042 7.24597 186.171 7.24929C186.3 7.2526 186.398 7.25758 186.464 7.2642V8.45739C186.425 8.44744 186.333 8.43253 186.191 8.41264C186.052 8.38944 185.904 8.37784 185.748 8.37784C185.377 8.37784 185.046 8.45573 184.754 8.61151C184.466 8.76397 184.237 8.97609 184.068 9.24787C183.902 9.51634 183.819 9.82292 183.819 10.1676V15H182.646Z" fill="#A8A7A8"/>
<rect x="203" y="9.5" width="157" height="1" fill="#D2D0D2"/>
</svg>
