<svg width="160" height="160" viewBox="0 0 160 160" fill="none" xmlns="http://www.w3.org/2000/svg">
<circle cx="80" cy="80" r="80" fill="#F8CFE0"/>
<g clip-path="url(#clip0_796_515)">
<path fill-rule="evenodd" clip-rule="evenodd" d="M66.6268 83.7666C67.074 83.3018 67.8014 83.2949 68.2552 83.7598C68.709 84.2246 68.709 84.9766 68.2619 85.4482L66.2931 87.4922L68.2619 89.5361C68.709 90.001 68.7023 90.7461 68.2485 91.2109C67.7947 91.6758 67.0673 91.6689 66.6268 91.2109L64.6715 89.1807L62.7094 91.2178C62.2623 91.6826 61.5282 91.6895 61.081 91.2246C60.6272 90.7598 60.6272 90.0078 61.0744 89.5361L63.0431 87.4922L61.0744 85.4482C60.6272 84.9834 60.6339 84.2383 61.0877 83.7734C61.5415 83.3086 62.269 83.3154 62.7094 83.7734L64.6648 85.8037L66.6268 83.7666ZM73.6074 41.4453V44.8633C73.6074 45.7451 72.92 46.5107 72.0858 46.5723C71.9057 46.6338 71.6988 46.6611 71.4919 46.6611H65.2921V53.7363C75.6763 53.7363 86.0671 53.7363 96.4512 53.7363V46.668H90.2581C90.0512 46.668 89.8377 46.6406 89.6642 46.5791C88.8299 46.5176 88.1426 45.752 88.1426 44.8701V41.4521C83.2975 41.4453 78.4525 41.4453 73.6074 41.4453ZM64.4579 57.25C63.7705 57.25 63.1165 56.9424 62.6694 56.4844C62.6093 56.4229 62.5826 56.3613 62.5225 56.2998C62.1622 55.8418 61.9286 55.2607 61.9286 54.6523V51.1729H52.5989C52.5121 51.1729 52.392 51.2002 52.3319 51.2959C52.2719 51.3643 52.2118 51.4873 52.2118 51.5762V118.151C52.2118 118.274 52.2385 118.363 52.3319 118.425C52.392 118.486 52.4788 118.548 52.5989 118.548C71.7455 118.548 90.0045 118.548 109.151 118.548C109.271 118.548 109.358 118.486 109.418 118.425C109.505 118.363 109.538 118.274 109.538 118.151V51.5762C109.538 51.4873 109.478 51.3643 109.418 51.3027C109.358 51.2139 109.238 51.1797 109.151 51.1797H99.8214V54.6592C99.8214 55.2676 99.5811 55.8486 99.2274 56.3066C99.1674 56.3682 99.1407 56.4297 99.0806 56.4912C98.6335 56.9492 97.9795 57.2568 97.2921 57.2568C86.3474 57.25 75.4026 57.25 64.4579 57.25ZM52.6256 122C51.6112 122 50.6569 121.576 49.9761 120.872C49.2888 120.168 48.875 119.225 48.875 118.158V51.5762C48.875 50.5098 49.2888 49.5596 49.9761 48.8623C50.6635 48.1582 51.5845 47.7344 52.6256 47.7344H61.9553V45.8408C61.9553 45.1367 62.2222 44.501 62.7027 44.0088C63.1499 43.5508 63.7772 43.2432 64.4913 43.2432H70.2706V40.8711C70.2706 40.0781 70.5976 39.374 71.1048 38.8545C71.612 38.335 72.2927 38 73.0669 38C78.2723 38 83.471 38 88.6765 38C89.4506 38 90.138 38.335 90.6452 38.8545C91.1524 39.374 91.4794 40.0781 91.4794 40.8711V43.25H97.2587C97.9728 43.25 98.6001 43.5576 99.0473 44.0156C99.5211 44.501 99.7947 45.1436 99.7947 45.8477V47.7412H109.124C110.166 47.7412 111.093 48.165 111.774 48.8691C112.461 49.5732 112.875 50.5166 112.875 51.583V118.158C112.875 119.225 112.461 120.175 111.774 120.872C111.086 121.576 110.132 122 109.124 122C89.9978 122 71.7522 122 52.6256 122ZM99.8414 106.086C100.762 106.086 101.537 105.32 101.537 104.35C101.537 103.406 100.789 102.613 99.8414 102.613C96.5647 102.613 80.5547 102.613 77.2779 102.613C76.3236 102.613 75.5828 103.406 75.5828 104.35C75.5828 105.327 76.357 106.086 77.2779 106.086C80.5547 106.086 96.5647 106.086 99.8414 106.086ZM99.8414 72.7266C100.762 72.7266 101.537 71.9609 101.537 70.9902C101.537 70.0469 100.789 69.2539 99.8414 69.2539C96.5647 69.2539 80.5547 69.2539 77.2779 69.2539C76.3236 69.2539 75.5828 70.0469 75.5828 70.9902C75.5828 71.9678 76.357 72.7266 77.2779 72.7266C80.5547 72.7266 96.5647 72.7266 99.8414 72.7266ZM99.8414 89.1807C100.762 89.1807 101.537 88.415 101.537 87.4443C101.537 86.501 100.789 85.708 99.8414 85.708C96.5647 85.708 80.5547 85.708 77.2779 85.708C76.3236 85.708 75.5828 86.501 75.5828 87.4443C75.5828 88.4219 76.357 89.1807 77.2779 89.1807C80.5547 89.1807 96.5647 89.1807 99.8414 89.1807ZM61.1478 104.261C60.6873 103.557 60.8675 102.6 61.5615 102.121C62.2489 101.649 63.1832 101.834 63.6504 102.545L64.4712 103.789L67.7213 99.7354C68.2485 99.0791 69.1962 98.9834 69.8368 99.5234C70.4775 100.063 70.5709 101.034 70.0437 101.69L65.5457 107.296C65.4456 107.426 65.3255 107.542 65.1853 107.645C64.4979 108.116 63.5636 107.932 63.0965 107.221L61.1478 104.261ZM61.1478 72.6309C60.6873 71.9268 60.8675 70.9697 61.5615 70.4912C62.2489 70.0195 63.1832 70.2041 63.6504 70.915L64.4712 72.1592L67.7213 68.1055C68.2485 67.4492 69.1962 67.3535 69.8368 67.8936C70.4775 68.4336 70.5709 69.4043 70.0437 70.0605L65.5457 75.666C65.4456 75.7959 65.3255 75.9121 65.1853 76.0146C64.4979 76.4863 63.5636 76.3018 63.0965 75.5908L61.1478 72.6309Z" fill="#DC0E62"/>
</g>
<defs>
<clipPath id="clip0_796_515">
<rect width="64" height="84" fill="white" transform="translate(48.875 38)"/>
</clipPath>
</defs>
</svg>
