<svg width="160" height="160" viewBox="0 0 160 160" fill="none" xmlns="http://www.w3.org/2000/svg">
<circle cx="80" cy="80" r="80" fill="#F8CFE0"/>
<g clip-path="url(#clip0_792_482)">
<path fill-rule="evenodd" clip-rule="evenodd" d="M93.9492 57.3268H110.531C115.585 57.3268 119.719 61.4616 119.719 66.515V82.7305C119.719 87.7832 115.583 91.9186 110.531 91.9186H103.392C104.413 95.959 105.65 99.5885 109.428 102.94C102.203 101.092 96.6263 97.3568 92.5326 91.9186H91.2988C90.819 91.9186 90.3164 91.8809 89.7995 91.8092C92.5293 89.5983 94.4258 86.8229 94.4258 83.8177V77.0605C95.0286 77.4798 95.7611 77.7253 96.5508 77.7253C98.6107 77.7253 100.281 76.0547 100.281 73.9954C100.281 71.9362 98.6107 70.2656 96.5508 70.2656C95.7611 70.2656 95.0286 70.5111 94.4258 70.9297V60.8118C94.4264 59.6061 94.2591 58.4375 93.9492 57.3268ZM76.8639 70.8027C74.7799 70.8027 73.0905 72.4928 73.0905 74.5762C73.0905 76.6595 74.7806 78.3496 76.8639 78.3496C78.9473 78.3496 80.6374 76.6595 80.6374 74.5762C80.6374 72.4928 78.9473 70.8027 76.8639 70.8027ZM53.7083 70.8027C51.6243 70.8027 49.9349 72.4928 49.9349 74.5762C49.9349 76.6595 51.625 78.3496 53.7083 78.3496C55.7917 78.3496 57.4818 76.6595 57.4818 74.5762C57.4818 72.4928 55.7923 70.8027 53.7083 70.8027ZM65.2858 70.8027C63.2018 70.8027 61.5124 72.4928 61.5124 74.5762C61.5124 76.6595 63.2018 78.3496 65.2858 78.3496C67.3698 78.3496 69.0592 76.6595 69.0592 74.5762C69.0592 72.4928 67.3698 70.8027 65.2858 70.8027ZM78.1302 54.3255H52.4414C46.722 54.3255 42.0436 59.0046 42.0436 64.7233V83.0723C42.0436 88.7904 46.7233 93.4701 52.4414 93.4701H60.5189C59.3633 98.0417 57.9642 102.15 53.6875 105.941C61.8633 103.851 68.1745 99.6237 72.8066 93.4701H74.2031C79.9212 93.4701 88.5273 88.791 88.5273 83.0723V64.7227C88.528 59.0046 83.849 54.3255 78.1302 54.3255ZM52.4414 52H78.1302H78.1335V52.0091C81.64 52.0104 84.8197 53.4368 87.1178 55.7357L87.1126 55.7402C89.4147 58.0443 90.8438 61.2233 90.8444 64.722H90.8535V64.7233H90.8444V83.0723H90.8535V83.0742H90.8444C90.8431 86.8151 88.2441 90.0742 84.7819 92.3503C81.5579 94.4701 77.487 95.7858 74.2044 95.7858V95.7956H74.2031V95.7858H73.9401C71.6211 98.6738 68.9297 101.141 65.8477 103.164C62.4395 105.402 58.584 107.089 54.2598 108.195L54.2578 108.187C53.444 108.392 52.5469 108.148 51.9525 107.477C51.1048 106.518 51.194 105.054 52.1523 104.206C54.0378 102.535 55.2878 100.796 56.1934 98.9714C56.6973 97.9564 57.1035 96.8958 57.4557 95.7956H52.4414H52.4382V95.7858C48.9329 95.7852 45.7526 94.3581 43.4544 92.0599C41.1556 89.7611 39.7279 86.5801 39.7272 83.0729H39.7188V83.0716H39.7279V64.7227H39.7188V64.7194H39.7279C39.7285 61.2858 41.1029 58.1628 43.3262 55.875C43.3665 55.8275 43.4089 55.7806 43.4538 55.7357C45.7526 53.4368 48.9336 52.0091 52.4408 52.0085L52.4414 52ZM108.449 70.2656C106.39 70.2656 104.719 71.9362 104.719 73.9954C104.719 76.0547 106.39 77.7253 108.449 77.7253C110.509 77.7253 112.18 76.0547 112.18 73.9954C112.18 71.9362 110.509 70.2656 108.449 70.2656Z" fill="#DC0E62"/>
</g>
<defs>
<clipPath id="clip0_792_482">
<rect width="80" height="56.2572" fill="white" transform="translate(39.7188 52)"/>
</clipPath>
</defs>
</svg>
