n<svg width="238" height="59" viewBox="0 0 238 59" fill="none" xmlns="http://www.w3.org/2000/svg">
<path d="M73.0052 44.9941V21.327H77.0077V44.9941H73.0052ZM65.0697 24.2854V20.6309H84.9432V24.2854H65.0697ZM91.2469 45.3422C89.6227 45.3422 88.1493 44.9593 86.8267 44.1936C85.5041 43.4047 84.4484 42.349 83.6595 41.0264C82.8938 39.7038 82.5109 38.2304 82.5109 36.6062C82.5109 34.982 82.8938 33.5202 83.6595 32.2208C84.4484 30.9214 85.5041 29.8889 86.8267 29.1232C88.1493 28.3343 89.6227 27.9398 91.2469 27.9398C92.8943 27.9398 94.3793 28.3227 95.7019 29.0884C97.0245 29.8541 98.0686 30.8982 98.8343 32.2208C99.6232 33.5202 100.018 34.982 100.018 36.6062C100.018 38.2304 99.6232 39.7038 98.8343 41.0264C98.0686 42.349 97.0245 43.4047 95.7019 44.1936C94.3793 44.9593 92.8943 45.3422 91.2469 45.3422ZM91.2469 41.6529C92.1982 41.6529 93.0335 41.4441 93.7528 41.0264C94.4953 40.5855 95.0638 39.9823 95.4583 39.2166C95.8759 38.4509 96.0847 37.5807 96.0847 36.6062C96.0847 35.6317 95.8759 34.7732 95.4583 34.0307C95.0406 33.2882 94.4721 32.7081 93.7528 32.2904C93.0335 31.8496 92.1982 31.6291 91.2469 31.6291C90.3188 31.6291 89.4835 31.8496 88.741 32.2904C88.0217 32.7081 87.4532 33.2882 87.0355 34.0307C86.6411 34.7732 86.4438 35.6317 86.4438 36.6062C86.4438 37.5807 86.6411 38.4509 87.0355 39.2166C87.4532 39.9823 88.0217 40.5855 88.741 41.0264C89.4835 41.4441 90.3188 41.6529 91.2469 41.6529ZM107.666 44.9941L100.949 28.2879H104.917L109.441 40.4347L108.258 40.4695L112.678 28.2879H114.906L119.326 40.4695L118.142 40.4347L122.667 28.2879H126.635L119.918 44.9941H117.69L113.165 33.439H114.418L109.894 44.9941H107.666ZM140.484 44.9941V35.3532C140.484 34.2395 140.124 33.323 139.405 32.6037C138.709 31.8844 137.804 31.5247 136.69 31.5247C135.948 31.5247 135.286 31.6871 134.706 32.012C134.126 32.3368 133.674 32.7893 133.349 33.3694C133.024 33.9495 132.862 34.6107 132.862 35.3532L131.365 34.5179C131.365 33.2418 131.643 32.1164 132.2 31.1419C132.757 30.1441 133.523 29.3668 134.497 28.81C135.495 28.2299 136.609 27.9398 137.839 27.9398C139.092 27.9398 140.205 28.2647 141.18 28.9144C142.154 29.5409 142.92 30.3646 143.477 31.3855C144.034 32.3832 144.312 33.4274 144.312 34.5179V44.9941H140.484ZM129.033 44.9941V28.2879H132.862V44.9941H129.033ZM159.654 44.9941V35.3532C159.654 34.2395 159.294 33.323 158.575 32.6037C157.879 31.8844 156.974 31.5247 155.86 31.5247C155.117 31.5247 154.456 31.6871 153.876 32.012C153.296 32.3368 152.843 32.7893 152.519 33.3694C152.194 33.9495 152.031 34.6107 152.031 35.3532L150.535 34.5179C150.535 33.2418 150.813 32.1164 151.37 31.1419C151.927 30.1441 152.693 29.3668 153.667 28.81C154.665 28.2299 155.779 27.9398 157.008 27.9398C158.261 27.9398 159.375 28.2183 160.35 28.7752C161.324 29.332 162.09 30.1093 162.647 31.1071C163.204 32.0816 163.482 33.2186 163.482 34.5179V44.9941H159.654ZM148.203 44.9941V19.9348H152.031V44.9941H148.203ZM175.03 45.3422C173.405 45.3422 171.932 44.9593 170.609 44.1936C169.287 43.4047 168.231 42.349 167.442 41.0264C166.677 39.7038 166.294 38.2304 166.294 36.6062C166.294 34.982 166.677 33.5202 167.442 32.2208C168.231 30.9214 169.287 29.8889 170.609 29.1232C171.932 28.3343 173.405 27.9398 175.03 27.9398C176.677 27.9398 178.162 28.3227 179.485 29.0884C180.807 29.8541 181.851 30.8982 182.617 32.2208C183.406 33.5202 183.8 34.982 183.8 36.6062C183.8 38.2304 183.406 39.7038 182.617 41.0264C181.851 42.349 180.807 43.4047 179.485 44.1936C178.162 44.9593 176.677 45.3422 175.03 45.3422ZM175.03 41.6529C175.981 41.6529 176.816 41.4441 177.536 41.0264C178.278 40.5855 178.847 39.9823 179.241 39.2166C179.659 38.4509 179.868 37.5807 179.868 36.6062C179.868 35.6317 179.659 34.7732 179.241 34.0307C178.823 33.2882 178.255 32.7081 177.536 32.2904C176.816 31.8496 175.981 31.6291 175.03 31.6291C174.102 31.6291 173.266 31.8496 172.524 32.2904C171.804 32.7081 171.236 33.2882 170.818 34.0307C170.424 34.7732 170.227 35.6317 170.227 36.6062C170.227 37.5807 170.424 38.4509 170.818 39.2166C171.236 39.9823 171.804 40.5855 172.524 41.0264C173.266 41.4441 174.102 41.6529 175.03 41.6529ZM193.841 45.3422C192.425 45.3422 191.161 45.0289 190.047 44.4025C188.957 43.776 188.098 42.9175 187.472 41.8269C186.868 40.7132 186.567 39.437 186.567 37.9984V28.2879H190.395V37.8244C190.395 38.6365 190.523 39.3326 190.778 39.9127C191.056 40.4695 191.451 40.8988 191.961 41.2004C192.495 41.5021 193.121 41.6529 193.841 41.6529C194.955 41.6529 195.801 41.328 196.382 40.6784C196.985 40.0055 197.286 39.0541 197.286 37.8244V28.2879H201.115V37.9984C201.115 39.4602 200.802 40.748 200.175 41.8617C199.572 42.9523 198.725 43.8108 197.634 44.4373C196.544 45.0405 195.279 45.3422 193.841 45.3422ZM210.429 45.3422C209.501 45.3422 208.607 45.2262 207.749 44.9941C206.89 44.7389 206.101 44.3909 205.382 43.95C204.663 43.4859 204.036 42.9291 203.503 42.2794L205.939 39.843C206.519 40.5159 207.18 41.0264 207.923 41.3745C208.689 41.6993 209.547 41.8617 210.498 41.8617C211.357 41.8617 212.007 41.7341 212.447 41.4789C212.888 41.2236 213.109 40.8524 213.109 40.3651C213.109 39.8546 212.9 39.4602 212.482 39.1818C212.065 38.9033 211.519 38.6713 210.846 38.4857C210.197 38.2768 209.501 38.068 208.758 37.8592C208.039 37.6504 207.343 37.3719 206.67 37.0239C206.02 36.6526 205.486 36.1537 205.069 35.5273C204.651 34.9008 204.442 34.0887 204.442 33.0909C204.442 32.0236 204.686 31.1071 205.173 30.3414C205.684 29.5757 206.391 28.984 207.296 28.5663C208.224 28.1487 209.327 27.9398 210.603 27.9398C211.949 27.9398 213.132 28.1835 214.153 28.6707C215.197 29.1348 216.067 29.8425 216.763 30.7938L214.327 33.2302C213.84 32.6269 213.283 32.1744 212.656 31.8728C212.03 31.5711 211.31 31.4203 210.498 31.4203C209.733 31.4203 209.141 31.5363 208.723 31.7684C208.306 32.0004 208.097 32.3368 208.097 32.7777C208.097 33.2418 208.306 33.6014 208.723 33.8566C209.141 34.1119 209.675 34.3323 210.324 34.5179C210.997 34.7036 211.693 34.9124 212.413 35.1444C213.155 35.3532 213.851 35.6549 214.501 36.0493C215.174 36.4206 215.719 36.9311 216.137 37.5807C216.554 38.2072 216.763 39.0309 216.763 40.0519C216.763 41.6761 216.195 42.9639 215.058 43.9152C213.921 44.8665 212.378 45.3422 210.429 45.3422ZM227.681 45.3422C226.01 45.3422 224.502 44.9709 223.156 44.2284C221.834 43.4627 220.778 42.4186 219.989 41.096C219.223 39.7734 218.841 38.2884 218.841 36.641C218.841 34.9936 219.223 33.5202 219.989 32.2208C220.755 30.8982 221.787 29.8541 223.087 29.0884C224.409 28.3227 225.871 27.9398 227.472 27.9398C229.027 27.9398 230.396 28.2995 231.579 29.0188C232.786 29.7381 233.725 30.7242 234.398 31.9772C235.094 33.2302 235.442 34.6571 235.442 36.2582C235.442 36.5366 235.419 36.8266 235.373 37.1283C235.35 37.4067 235.303 37.72 235.234 38.068H221.521V34.9356H233.25L231.823 36.1886C231.776 35.1676 231.579 34.3091 231.231 33.613C230.883 32.9169 230.384 32.3832 229.734 32.012C229.108 31.6407 228.331 31.4551 227.403 31.4551C226.428 31.4551 225.581 31.6639 224.862 32.0816C224.143 32.4993 223.586 33.0909 223.191 33.8566C222.797 34.5991 222.6 35.4925 222.6 36.5366C222.6 37.5807 222.808 38.4973 223.226 39.2862C223.644 40.0751 224.235 40.69 225.001 41.1308C225.767 41.5485 226.648 41.7573 227.646 41.7573C228.505 41.7573 229.294 41.6065 230.013 41.3048C230.755 41.0032 231.382 40.5623 231.892 39.9823L234.329 42.4534C233.517 43.4047 232.53 44.124 231.37 44.6113C230.21 45.0986 228.98 45.3422 227.681 45.3422Z" fill="#DC0E62"/>
<path d="M48.7624 21.2149C48.5804 20.7862 48.315 20.4119 47.9864 20.1204L26.1923 0.660108C25.7146 0.231466 25.1256 0 24.519 0C23.9123 0 23.3233 0.231466 22.8456 0.660108L1.05153 20.1176C0.72293 20.409 0.457519 20.7834 0.275522 21.212C0.0935259 21.6407 0 22.1122 0 22.5894V55.4548C0 56.2835 0.288161 57.0807 0.798762 57.6666C1.30936 58.2524 2.00196 58.5838 2.72489 58.5838H20.8588C16.0435 53.6173 13.0178 50.0024 13.1492 45.6217C13.2175 43.4471 14.2058 41.361 15.8109 40.1323C18.8113 37.829 22.5195 38.9035 24.5215 41.5382C26.5234 38.9035 30.2291 37.8147 33.232 40.1323C34.8346 41.361 35.8255 43.4442 35.8937 45.6217C36.0353 49.9967 33.0096 53.6087 28.2019 58.5838H46.3181C47.041 58.5838 47.7336 58.2552 48.2442 57.6666C48.7548 57.0779 49.043 56.2835 49.043 55.4548V22.5894C49.0379 22.1122 48.9444 21.6407 48.7624 21.2149ZM24.0134 29.4334C24.0134 30.2221 23.4472 30.8622 22.7495 30.8622H19.2107C18.5131 30.8622 17.9469 30.2221 17.9469 29.4334V25.7185C17.9469 24.9298 18.5131 24.2897 19.2107 24.2897H22.7495C23.4472 24.2897 24.0134 24.9298 24.0134 25.7185V29.4334ZM24.0134 21.7178C24.0134 22.5065 23.4472 23.1466 22.7495 23.1466H19.2107C18.5131 23.1466 17.9469 22.5065 17.9469 21.7178V18.0029C17.9469 17.2142 18.5131 16.5741 19.2107 16.5741H22.7495C23.4472 16.5741 24.0134 17.2142 24.0134 18.0029V21.7178ZM31.5966 29.4334C31.5966 30.2221 31.0304 30.8622 30.3327 30.8622H26.7939C26.0963 30.8622 25.53 30.2221 25.53 29.4334V25.7185C25.53 24.9298 26.0963 24.2897 26.7939 24.2897H30.3327C31.0304 24.2897 31.5966 24.9298 31.5966 25.7185V29.4334ZM31.5966 21.7178C31.5966 22.5065 31.0304 23.1466 30.3327 23.1466H26.7939C26.0963 23.1466 25.53 22.5065 25.53 21.7178V18.0029C25.53 17.2142 26.0963 16.5741 26.7939 16.5741H30.3327C31.0304 16.5741 31.5966 17.2142 31.5966 18.0029V21.7178Z" fill="#DC0E62"/>
</svg>
