<svg width="238" height="59" viewBox="0 0 238 59" fill="none" xmlns="http://www.w3.org/2000/svg">
<path d="M73.0013 44.9946V21.3274H77.0038V44.9946H73.0013ZM65.0658 24.2858V20.6313H84.9393V24.2858H65.0658ZM91.243 45.3427C89.6188 45.3427 88.1454 44.9598 86.8228 44.1941C85.5002 43.4052 84.4445 42.3495 83.6556 41.0269C82.8899 39.7043 82.507 38.2309 82.507 36.6067C82.507 34.9825 82.8899 33.5207 83.6556 32.2213C84.4445 30.9219 85.5002 29.8894 86.8228 29.1237C88.1454 28.3348 89.6188 27.9403 91.243 27.9403C92.8904 27.9403 94.3754 28.3232 95.698 29.0889C97.0206 29.8546 98.0647 30.8987 98.8304 32.2213C99.6193 33.5207 100.014 34.9825 100.014 36.6067C100.014 38.2309 99.6193 39.7043 98.8304 41.0269C98.0647 42.3495 97.0206 43.4052 95.698 44.1941C94.3754 44.9598 92.8904 45.3427 91.243 45.3427ZM91.243 41.6534C92.1943 41.6534 93.0296 41.4446 93.7489 41.0269C94.4914 40.586 95.0599 39.9828 95.4544 39.2171C95.872 38.4513 96.0808 37.5812 96.0808 36.6067C96.0808 35.6322 95.872 34.7737 95.4544 34.0312C95.0367 33.2887 94.4682 32.7086 93.7489 32.2909C93.0296 31.8501 92.1943 31.6296 91.243 31.6296C90.3149 31.6296 89.4795 31.8501 88.737 32.2909C88.0178 32.7086 87.4493 33.2887 87.0316 34.0312C86.6372 34.7737 86.4399 35.6322 86.4399 36.6067C86.4399 37.5812 86.6372 38.4513 87.0316 39.2171C87.4493 39.9828 88.0178 40.586 88.737 41.0269C89.4795 41.4446 90.3149 41.6534 91.243 41.6534ZM107.662 44.9946L100.945 28.2884H104.913L109.437 40.4352L108.254 40.47L112.674 28.2884H114.902L119.322 40.47L118.139 40.4352L122.663 28.2884H126.631L119.914 44.9946H117.686L113.162 33.4395H114.414L109.89 44.9946H107.662ZM140.48 44.9946V35.3537C140.48 34.24 140.12 33.3235 139.401 32.6042C138.705 31.8849 137.8 31.5252 136.686 31.5252C135.944 31.5252 135.282 31.6876 134.702 32.0125C134.122 32.3373 133.67 32.7898 133.345 33.3699C133.02 33.9499 132.858 34.6112 132.858 35.3537L131.361 34.5184C131.361 33.2422 131.64 32.1169 132.196 31.1424C132.753 30.1446 133.519 29.3673 134.494 28.8104C135.491 28.2304 136.605 27.9403 137.835 27.9403C139.088 27.9403 140.201 28.2652 141.176 28.9149C142.151 29.5413 142.916 30.3651 143.473 31.386C144.03 32.3837 144.308 33.4279 144.308 34.5184V44.9946H140.48ZM129.029 44.9946V28.2884H132.858V44.9946H129.029ZM159.65 44.9946V35.3537C159.65 34.24 159.29 33.3235 158.571 32.6042C157.875 31.8849 156.97 31.5252 155.856 31.5252C155.113 31.5252 154.452 31.6876 153.872 32.0125C153.292 32.3373 152.84 32.7898 152.515 33.3699C152.19 33.9499 152.027 34.6112 152.027 35.3537L150.531 34.5184C150.531 33.2422 150.809 32.1169 151.366 31.1424C151.923 30.1446 152.689 29.3673 153.663 28.8104C154.661 28.2304 155.775 27.9403 157.005 27.9403C158.258 27.9403 159.371 28.2188 160.346 28.7756C161.32 29.3325 162.086 30.1098 162.643 31.1076C163.2 32.0821 163.478 33.219 163.478 34.5184V44.9946H159.65ZM148.199 44.9946V19.9353H152.027V44.9946H148.199ZM175.026 45.3427C173.402 45.3427 171.928 44.9598 170.606 44.1941C169.283 43.4052 168.227 42.3495 167.438 41.0269C166.673 39.7043 166.29 38.2309 166.29 36.6067C166.29 34.9825 166.673 33.5207 167.438 32.2213C168.227 30.9219 169.283 29.8894 170.606 29.1237C171.928 28.3348 173.402 27.9403 175.026 27.9403C176.673 27.9403 178.158 28.3232 179.481 29.0889C180.803 29.8546 181.847 30.8987 182.613 32.2213C183.402 33.5207 183.797 34.9825 183.797 36.6067C183.797 38.2309 183.402 39.7043 182.613 41.0269C181.847 42.3495 180.803 43.4052 179.481 44.1941C178.158 44.9598 176.673 45.3427 175.026 45.3427ZM175.026 41.6534C175.977 41.6534 176.812 41.4446 177.532 41.0269C178.274 40.586 178.843 39.9828 179.237 39.2171C179.655 38.4513 179.864 37.5812 179.864 36.6067C179.864 35.6322 179.655 34.7737 179.237 34.0312C178.819 33.2887 178.251 32.7086 177.532 32.2909C176.812 31.8501 175.977 31.6296 175.026 31.6296C174.098 31.6296 173.262 31.8501 172.52 32.2909C171.801 32.7086 171.232 33.2887 170.814 34.0312C170.42 34.7737 170.223 35.6322 170.223 36.6067C170.223 37.5812 170.42 38.4513 170.814 39.2171C171.232 39.9828 171.801 40.586 172.52 41.0269C173.262 41.4446 174.098 41.6534 175.026 41.6534ZM193.837 45.3427C192.421 45.3427 191.157 45.0294 190.043 44.4029C188.953 43.7765 188.094 42.9179 187.468 41.8274C186.864 40.7137 186.563 39.4375 186.563 37.9989V28.2884H190.391V37.8249C190.391 38.637 190.519 39.3331 190.774 39.9131C191.052 40.47 191.447 40.8993 191.957 41.2009C192.491 41.5026 193.118 41.6534 193.837 41.6534C194.951 41.6534 195.798 41.3285 196.378 40.6788C196.981 40.006 197.283 39.0546 197.283 37.8249V28.2884H201.111V37.9989C201.111 39.4607 200.798 40.7485 200.171 41.8622C199.568 42.9528 198.721 43.8113 197.631 44.4378C196.54 45.041 195.275 45.3427 193.837 45.3427ZM210.425 45.3427C209.497 45.3427 208.603 45.2267 207.745 44.9946C206.886 44.7394 206.097 44.3913 205.378 43.9505C204.659 43.4864 204.032 42.9296 203.499 42.2799L205.935 39.8435C206.515 40.5164 207.176 41.0269 207.919 41.3749C208.685 41.6998 209.543 41.8622 210.494 41.8622C211.353 41.8622 212.003 41.7346 212.444 41.4794C212.884 41.2241 213.105 40.8529 213.105 40.3656C213.105 39.8551 212.896 39.4607 212.478 39.1822C212.061 38.9038 211.515 38.6718 210.842 38.4862C210.193 38.2773 209.497 38.0685 208.754 37.8597C208.035 37.6508 207.339 37.3724 206.666 37.0244C206.016 36.6531 205.483 36.1542 205.065 35.5278C204.647 34.9013 204.438 34.0892 204.438 33.0914C204.438 32.0241 204.682 31.1076 205.169 30.3419C205.68 29.5762 206.387 28.9845 207.292 28.5668C208.221 28.1492 209.323 27.9403 210.599 27.9403C211.945 27.9403 213.128 28.184 214.149 28.6712C215.193 29.1353 216.063 29.843 216.759 30.7943L214.323 33.2306C213.836 32.6274 213.279 32.1749 212.652 31.8733C212.026 31.5716 211.307 31.4208 210.494 31.4208C209.729 31.4208 209.137 31.5368 208.719 31.7688C208.302 32.0009 208.093 32.3373 208.093 32.7782C208.093 33.2422 208.302 33.6019 208.719 33.8571C209.137 34.1124 209.671 34.3328 210.32 34.5184C210.993 34.704 211.689 34.9129 212.409 35.1449C213.151 35.3537 213.847 35.6554 214.497 36.0498C215.17 36.4211 215.715 36.9315 216.133 37.5812C216.55 38.2077 216.759 39.0314 216.759 40.0524C216.759 41.6766 216.191 42.9644 215.054 43.9157C213.917 44.867 212.374 45.3427 210.425 45.3427ZM227.677 45.3427C226.006 45.3427 224.498 44.9714 223.152 44.2289C221.83 43.4632 220.774 42.4191 219.985 41.0965C219.22 39.7739 218.837 38.2889 218.837 36.6415C218.837 34.9941 219.22 33.5207 219.985 32.2213C220.751 30.8987 221.783 29.8546 223.083 29.0889C224.405 28.3232 225.867 27.9403 227.468 27.9403C229.023 27.9403 230.392 28.3 231.575 29.0193C232.782 29.7386 233.722 30.7247 234.394 31.9777C235.09 33.2306 235.439 34.6576 235.439 36.2587C235.439 36.5371 235.415 36.8271 235.369 37.1288C235.346 37.4072 235.299 37.7204 235.23 38.0685H221.517V34.9361H233.246L231.819 36.189C231.772 35.1681 231.575 34.3096 231.227 33.6135C230.879 32.9174 230.38 32.3837 229.731 32.0125C229.104 31.6412 228.327 31.4556 227.399 31.4556C226.424 31.4556 225.577 31.6644 224.858 32.0821C224.139 32.4997 223.582 33.0914 223.187 33.8571C222.793 34.5996 222.596 35.4929 222.596 36.5371C222.596 37.5812 222.804 38.4978 223.222 39.2867C223.64 40.0756 224.231 40.6904 224.997 41.1313C225.763 41.549 226.645 41.7578 227.642 41.7578C228.501 41.7578 229.29 41.607 230.009 41.3053C230.752 41.0037 231.378 40.5628 231.888 39.9828L234.325 42.4539C233.513 43.4052 232.527 44.1245 231.366 44.6118C230.206 45.099 228.976 45.3427 227.677 45.3427Z" fill="#DC0E62"/>
<path d="M48.7624 21.2149C48.5804 20.7862 48.315 20.4119 47.9864 20.1204L26.1923 0.660108C25.7146 0.231466 25.1256 0 24.519 0C23.9123 0 23.3233 0.231466 22.8456 0.660108L1.05153 20.1176C0.72293 20.409 0.457519 20.7834 0.275522 21.212C0.0935259 21.6407 0 22.1122 0 22.5894V55.4548C0 56.2835 0.288161 57.0807 0.798762 57.6666C1.30936 58.2524 2.00196 58.5838 2.72489 58.5838H20.8588C16.0435 53.6173 13.0178 50.0024 13.1492 45.6217C13.2175 43.4471 14.2058 41.361 15.8109 40.1323C18.8113 37.829 22.5195 38.9035 24.5215 41.5382C26.5234 38.9035 30.2291 37.8147 33.232 40.1323C34.8346 41.361 35.8255 43.4442 35.8937 45.6217C36.0353 49.9967 33.0096 53.6087 28.2019 58.5838H46.3181C47.041 58.5838 47.7336 58.2552 48.2442 57.6666C48.7548 57.0779 49.043 56.2835 49.043 55.4548V22.5894C49.0379 22.1122 48.9444 21.6407 48.7624 21.2149ZM24.0134 29.4334C24.0134 30.2221 23.4472 30.8622 22.7495 30.8622H19.2107C18.5131 30.8622 17.9469 30.2221 17.9469 29.4334V25.7185C17.9469 24.9298 18.5131 24.2897 19.2107 24.2897H22.7495C23.4472 24.2897 24.0134 24.9298 24.0134 25.7185V29.4334ZM24.0134 21.7178C24.0134 22.5065 23.4472 23.1466 22.7495 23.1466H19.2107C18.5131 23.1466 17.9469 22.5065 17.9469 21.7178V18.0029C17.9469 17.2142 18.5131 16.5741 19.2107 16.5741H22.7495C23.4472 16.5741 24.0134 17.2142 24.0134 18.0029V21.7178ZM31.5966 29.4334C31.5966 30.2221 31.0304 30.8622 30.3327 30.8622H26.7939C26.0963 30.8622 25.53 30.2221 25.53 29.4334V25.7185C25.53 24.9298 26.0963 24.2897 26.7939 24.2897H30.3327C31.0304 24.2897 31.5966 24.9298 31.5966 25.7185V29.4334ZM31.5966 21.7178C31.5966 22.5065 31.0304 23.1466 30.3327 23.1466H26.7939C26.0963 23.1466 25.53 22.5065 25.53 21.7178V18.0029C25.53 17.2142 26.0963 16.5741 26.7939 16.5741H30.3327C31.0304 16.5741 31.5966 17.2142 31.5966 18.0029V21.7178Z" fill="#DC0E62"/>
</svg>
