<svg width="42" height="47" viewBox="0 0 42 47" fill="none" xmlns="http://www.w3.org/2000/svg">
<path d="M41.7597 17.0189C41.6039 16.6848 41.3766 16.393 41.0951 16.1659L22.4309 0.998851C22.0217 0.664776 21.5174 0.484375 20.9978 0.484375C20.4783 0.484375 19.9739 0.664776 19.5648 0.998851L0.900526 16.1636C0.619111 16.3908 0.391815 16.6826 0.235955 17.0166C0.0800948 17.3507 0 17.7182 0 18.0901V43.7048C0 44.3507 0.246779 44.9721 0.684053 45.4286C1.12133 45.8852 1.71446 46.1436 2.33357 46.1436H17.8633C13.7395 42.2727 11.1483 39.4554 11.2609 36.0411C11.3193 34.3462 12.1658 32.7204 13.5404 31.7627C16.1099 29.9676 19.2855 30.805 21 32.8585C22.7145 30.805 25.8879 29.9565 28.4596 31.7627C29.8321 32.7204 30.6807 34.344 30.7391 36.0411C30.8603 39.4509 28.2691 42.2661 24.1518 46.1436H39.6664C40.2855 46.1436 40.8787 45.8874 41.3159 45.4286C41.7532 44.9698 42 44.3507 42 43.7048V18.0901C41.9957 17.7182 41.9156 17.3507 41.7597 17.0189ZM20.5649 23.4242C20.5649 24.0389 20.08 24.5378 19.4825 24.5378H16.4519C15.8544 24.5378 15.3695 24.0389 15.3695 23.4242V20.5289C15.3695 19.9142 15.8544 19.4153 16.4519 19.4153H19.4825C20.08 19.4153 20.5649 19.9142 20.5649 20.5289V23.4242ZM20.5649 17.4109C20.5649 18.0256 20.08 18.5244 19.4825 18.5244H16.4519C15.8544 18.5244 15.3695 18.0256 15.3695 17.4109V14.5155C15.3695 13.9008 15.8544 13.402 16.4519 13.402H19.4825C20.08 13.402 20.5649 13.9008 20.5649 14.5155V17.4109ZM27.0591 23.4242C27.0591 24.0389 26.5742 24.5378 25.9767 24.5378H22.9461C22.3486 24.5378 21.8637 24.0389 21.8637 23.4242V20.5289C21.8637 19.9142 22.3486 19.4153 22.9461 19.4153H25.9767C26.5742 19.4153 27.0591 19.9142 27.0591 20.5289V23.4242ZM27.0591 17.4109C27.0591 18.0256 26.5742 18.5244 25.9767 18.5244H22.9461C22.3486 18.5244 21.8637 18.0256 21.8637 17.4109V14.5155C21.8637 13.9008 22.3486 13.402 22.9461 13.402H25.9767C26.5742 13.402 27.0591 13.9008 27.0591 14.5155V17.4109Z" fill="#DC0E62"/>
</svg>
