<svg width="363" height="88" viewBox="0 0 363 88" fill="none" xmlns="http://www.w3.org/2000/svg">
<path d="M75.4996 31.8012H130.754V0.549706H155.203V87.2238H130.754V53.2866H99.9484V87.2238H75.4996V31.8012Z" fill="url(#paint0_linear_158_2894)"/>
<path d="M44.7147 22.3113H27.9821V12.7905H43.47V6.57618H35.3112V0.82587H117.003L117.003 22.3113H69.1635V87.5H44.7147V22.3113Z" fill="url(#paint1_linear_158_2894)"/>
<path d="M40.2895 22.0429H59.6494V30.6048H40.2895V22.0429Z" fill="url(#paint2_linear_158_2894)"/>
<path d="M20.653 72.5857H32.269V80.0429H20.653V72.5857Z" fill="url(#paint3_linear_158_2894)"/>
<path d="M33.6518 80.0429H42.502V87.5H33.6518V80.0429Z" fill="url(#paint4_linear_158_2894)"/>
<path d="M0.463379 51.0428H9.31363V58.5H0.463379V51.0428Z" fill="url(#paint5_linear_158_2894)"/>
<path d="M32.5455 36.6809H56.8837V44.1381H32.5455V36.6809Z" fill="url(#paint6_linear_158_2894)"/>
<path d="M6.8245 61.8143H25.9078V69.2714H6.8245V61.8143Z" fill="url(#paint7_linear_158_2894)"/>
<path d="M19.5467 51.0428H34.2049V58.5H19.5467V51.0428Z" fill="url(#paint8_linear_158_2894)"/>
<path d="M7.10107 40.5476H21.7593V48.0048H7.10107V40.5476Z" fill="url(#paint9_linear_158_2894)"/>
<path d="M12.3559 26.7381H27.0141V34.1952H12.3559V26.7381Z" fill="url(#paint10_linear_158_2894)"/>
<path d="M2.1228 13.2048H21.7593V22.319H2.1228V13.2048Z" fill="url(#paint11_linear_158_2894)"/>
<path d="M16.781 0.5H27.0141V6.85238H16.781V0.5Z" fill="url(#paint12_linear_158_2894)"/>
<path d="M210.563 41.5759H195.758V41.2049C198.463 41.2049 198.556 41.3812 199.385 40.4629C200.214 39.5446 200.518 36.6127 200.518 34.1639V1.65621H197.039C193.636 1.65621 191.313 3.16028 189.786 4.38469C188.259 5.60909 187.169 7.90484 186.514 11.272H185.205L185.598 0.77707H220.215L220.608 11.272H219.299C218.688 7.90484 217.597 5.60909 216.027 4.38469C214.5 3.16028 212.085 1.65621 208.638 1.65621H205.23V34.8854C205.23 37.0281 205.532 39.6321 206.492 40.4629C207.451 41.2938 207.989 41.2049 210.563 41.2049V41.5759Z" fill="url(#paint13_linear_158_2894)"/>
<path d="M237.635 0.77707C233.883 1.55754 230.62 3.35351 227.847 6.16497C224.008 10.0568 222.088 15.1949 222.088 21.5793C222.088 27.92 223.964 33.0581 227.716 36.9937C231.511 40.8855 236.31 42.8315 242.112 42.8315C247.914 42.8315 252.713 40.9074 256.509 37.0593C260.348 33.1674 262.267 28.0293 262.267 21.6449C262.267 18.159 261.703 15.046 260.574 12.306L256.011 13.8993C256.648 16.1792 256.967 18.7392 256.967 21.5793C256.967 27.5264 255.549 32.271 252.713 35.813C249.878 39.3113 246.3 42.424 242.112 42.424C237.968 42.424 234.521 39.3113 231.642 35.813C228.806 32.271 227.389 27.5264 227.389 21.5793C227.389 15.6322 228.828 10.9095 231.708 7.41124C233.625 5.05279 235.822 3.47953 238.3 2.69145L237.635 0.77707Z" fill="url(#paint14_linear_158_2894)"/>
<path d="M316.949 3.20401C317.647 2.54808 318.891 2.06707 320.679 1.76096V0.77707H308.508V1.76096C311.474 2.06707 314.794 2.76673 314.794 4.51587C314.794 5.41464 314.312 6.85467 313.742 8.55511C313.674 8.75753 313.605 8.96365 313.536 9.17298L309.02 21.0967L304.653 34.0075L295.093 9.30416C294.918 8.77942 294.504 7.75179 293.85 6.22129C293.544 5.4779 293.391 4.90943 293.391 4.51587C293.391 2.67927 295.289 1.76096 299.085 1.76096V0.77707H282.66V1.76096C284.579 1.76096 285.91 2.11079 286.651 2.81045C287.393 3.46638 288.265 5.04062 289.269 7.53315L291.297 12.3214L291.26 12.4312L292.291 15.2348L292.29 15.2355C296.56 25.8057 299.981 34.8045 302.553 42.2319H303.076C305.04 35.8912 307.766 27.6702 311.256 17.5689C314.354 8.6045 316.251 3.81621 316.949 3.20401Z" fill="url(#paint15_linear_158_2894)"/>
<path d="M281.912 40.4443L281.779 40.0177L284.199 32.9663L274.611 7.074C274.48 6.70745 274.294 6.22921 274.097 5.72374C273.637 4.54079 273.118 3.20874 273.118 2.81045C273.118 1.48683 274.522 1.56547 276.604 1.68207C277.274 1.71956 278.013 1.76096 278.799 1.76096V0.77707H263.748V1.76096C264.188 1.80109 264.635 1.78753 265.067 1.77439C266.049 1.74457 266.96 1.71691 267.566 2.32401C268.15 2.88042 268.646 4.37084 269.264 6.22723C269.568 7.14283 269.903 8.14747 270.292 9.17298L273.825 18.356C277.215 27.3254 279.911 34.6882 281.912 40.4443Z" fill="url(#paint16_linear_158_2894)"/>
<path d="M355.843 31.6422L331.387 0.77707H322.16V1.76096C324.559 1.76096 326.675 2.91977 328.507 5.2374V32.5241C328.507 35.76 328.049 37.9246 327.133 39.0178C326.217 40.0673 324.559 40.9823 322.16 40.9823V41.5759H336.622V40.9823C334.266 40.9823 332.303 40.111 331.387 39.0178C330.514 37.8808 329.435 35.6726 329.435 32.5241V7.59222L357.962 42.1616L355.843 31.6422Z" fill="url(#paint17_linear_158_2894)"/>
<path d="M201.242 64.5332H189.529V52.2017C189.529 50.059 189.966 48.6159 190.838 47.8726C191.754 47.0854 193.412 46.5826 195.811 46.3639V45.4456H178.732V46.3639C181.131 46.5826 182.746 47.0636 183.574 47.807C184.403 48.5504 184.818 50.0153 184.818 52.2017V78.8325C184.818 81.2813 184.425 82.9648 183.64 83.8831C182.855 84.8014 181.219 85.2606 178.732 85.2606V86.2445H195.811V85.2606C193.412 85.2606 191.754 84.8451 190.838 84.0143C189.966 83.1397 189.529 81.653 189.529 79.554V66.4354H209.684V78.8325C209.684 81.2813 209.292 82.9648 208.507 83.8831C207.721 84.8014 206.085 85.2606 203.599 85.2606V86.2445H220.678V85.2606C216.534 85.2606 214.461 83.3584 214.461 79.554V64.578H201.242V64.5332Z" fill="url(#paint18_linear_158_2894)"/>
<path d="M237.706 45.4456C233.953 46.2261 230.69 48.022 227.917 50.8335C224.078 54.7254 222.159 59.8635 222.159 66.2479C222.159 72.5885 224.034 77.7266 227.786 81.6622C231.582 85.5541 236.381 87.5 242.183 87.5C247.985 87.5 252.784 85.576 256.579 81.7278C260.418 77.836 262.338 72.6978 262.338 66.3135C262.338 62.8275 261.773 59.7146 260.644 56.9745L256.081 58.5678C256.719 60.8477 257.037 63.4078 257.037 66.2479C257.037 72.195 255.619 76.9395 252.784 80.4816C249.948 83.9799 246.371 87.0925 242.183 87.0925C238.038 87.0925 234.592 83.9799 231.713 80.4816C228.877 76.9395 227.459 72.195 227.459 66.2479C227.459 60.3008 228.899 55.5781 231.778 52.0798C233.695 49.7213 235.893 48.1481 238.371 47.36L237.706 45.4456Z" fill="url(#paint19_linear_158_2894)"/>
<path d="M295.076 81.6441C293.103 83.8364 290.187 84.9326 286.329 84.9326C278.651 84.9326 274.812 80.5816 274.812 71.8796V52.2017C274.812 49.9278 275.248 48.3973 276.121 47.6102C277.037 46.8231 278.738 46.4295 281.225 46.4295V45.4456H263.818V46.4295C266.218 46.4295 267.854 46.8449 268.726 47.6758C269.642 48.4629 270.1 49.9715 270.1 52.2017V71.4204C270.1 77.1489 271.3 81.1938 273.699 83.5551C276.143 85.9165 279.785 87.0972 284.628 87.0972C289.776 87.0972 293.658 85.8946 296.276 83.4896C296.847 82.9649 297.355 82.3497 297.802 81.6441H295.076Z" fill="url(#paint20_linear_158_2894)"/>
<path d="M322.382 58.5642H323.756L322.382 45.4456H321.073C320.768 46.8449 320.048 47.5446 318.914 47.5446C314.464 46.1453 311.628 45.4456 310.407 45.4456C307.266 45.4456 304.627 46.4076 302.489 48.3317C300.351 50.212 299.282 52.7483 299.282 55.9405C299.282 58.1269 299.828 59.9854 300.918 61.5159C302.053 63.0027 304.692 64.9705 308.836 67.4193C313.025 69.8243 315.904 71.7921 317.474 73.3226C319.045 74.8531 319.83 76.6023 319.83 78.5701C319.83 79.1104 319.769 79.6359 319.648 80.1466L323.18 82.8881C324.437 81.1164 325.065 79.0649 325.065 76.7335C325.065 73.4976 323.211 70.4803 319.503 67.6816L309.229 61.1223C305.521 58.761 303.667 56.3122 303.667 53.7759C303.667 51.8956 304.365 50.3432 305.761 49.1188C307.201 47.8507 308.858 47.2166 310.734 47.2166C313.526 47.2166 315.991 48.3536 318.129 50.6275C320.31 52.8576 321.728 55.5032 322.382 58.5642Z" fill="url(#paint21_linear_158_2894)"/>
<path d="M332.697 63.9844V79.554C332.697 83.3584 330.647 85.2606 326.546 85.2606V86.2445H359.723L362.537 75.8152H361.163C359.767 79.0074 358.065 81.2594 356.058 82.5713C354.052 83.8394 351.151 84.4734 347.355 84.4734C342.164 84.4734 339.197 84.3204 338.456 84.0143C337.758 83.6645 337.409 82.9648 337.409 81.9153V65.6483L347.617 65.7139C349.842 65.7576 351.456 66.1293 352.459 66.8289C353.463 67.5286 354.183 69.2559 354.619 72.0108H355.797V57.7115H354.619C354.183 60.5101 353.463 62.2593 352.459 62.9589C351.456 63.6149 349.842 63.9428 347.617 63.9428H344.628V63.9844H332.697Z" fill="url(#paint22_linear_158_2894)"/>
<path d="M344.628 47.2166H348.533C351.936 47.2166 354.292 47.7195 355.6 48.7253C356.909 49.6873 357.804 51.5458 358.283 54.3007H359.396L359.2 45.4456H344.628V47.2166Z" fill="url(#paint23_linear_158_2894)"/>
<defs>
<linearGradient id="paint0_linear_158_2894" x1="0.463379" y1="44" x2="362.537" y2="44" gradientUnits="userSpaceOnUse">
<stop stop-color="#DC0E62"/>
<stop offset="1" stop-color="white"/>
</linearGradient>
<linearGradient id="paint1_linear_158_2894" x1="0.463379" y1="44" x2="362.537" y2="44" gradientUnits="userSpaceOnUse">
<stop stop-color="#DC0E62"/>
<stop offset="1" stop-color="white"/>
</linearGradient>
<linearGradient id="paint2_linear_158_2894" x1="0.463379" y1="44" x2="362.537" y2="44" gradientUnits="userSpaceOnUse">
<stop stop-color="#DC0E62"/>
<stop offset="1" stop-color="white"/>
</linearGradient>
<linearGradient id="paint3_linear_158_2894" x1="0.463379" y1="44" x2="362.537" y2="44" gradientUnits="userSpaceOnUse">
<stop stop-color="#DC0E62"/>
<stop offset="1" stop-color="white"/>
</linearGradient>
<linearGradient id="paint4_linear_158_2894" x1="0.463379" y1="44" x2="362.537" y2="44" gradientUnits="userSpaceOnUse">
<stop stop-color="#DC0E62"/>
<stop offset="1" stop-color="white"/>
</linearGradient>
<linearGradient id="paint5_linear_158_2894" x1="0.463379" y1="44" x2="362.537" y2="44" gradientUnits="userSpaceOnUse">
<stop stop-color="#DC0E62"/>
<stop offset="1" stop-color="white"/>
</linearGradient>
<linearGradient id="paint6_linear_158_2894" x1="0.463379" y1="44" x2="362.537" y2="44" gradientUnits="userSpaceOnUse">
<stop stop-color="#DC0E62"/>
<stop offset="1" stop-color="white"/>
</linearGradient>
<linearGradient id="paint7_linear_158_2894" x1="0.463379" y1="44" x2="362.537" y2="44" gradientUnits="userSpaceOnUse">
<stop stop-color="#DC0E62"/>
<stop offset="1" stop-color="white"/>
</linearGradient>
<linearGradient id="paint8_linear_158_2894" x1="0.463379" y1="44" x2="362.537" y2="44" gradientUnits="userSpaceOnUse">
<stop stop-color="#DC0E62"/>
<stop offset="1" stop-color="white"/>
</linearGradient>
<linearGradient id="paint9_linear_158_2894" x1="0.463379" y1="44" x2="362.537" y2="44" gradientUnits="userSpaceOnUse">
<stop stop-color="#DC0E62"/>
<stop offset="1" stop-color="white"/>
</linearGradient>
<linearGradient id="paint10_linear_158_2894" x1="0.463379" y1="44" x2="362.537" y2="44" gradientUnits="userSpaceOnUse">
<stop stop-color="#DC0E62"/>
<stop offset="1" stop-color="white"/>
</linearGradient>
<linearGradient id="paint11_linear_158_2894" x1="0.463379" y1="44" x2="362.537" y2="44" gradientUnits="userSpaceOnUse">
<stop stop-color="#DC0E62"/>
<stop offset="1" stop-color="white"/>
</linearGradient>
<linearGradient id="paint12_linear_158_2894" x1="0.463379" y1="44" x2="362.537" y2="44" gradientUnits="userSpaceOnUse">
<stop stop-color="#DC0E62"/>
<stop offset="1" stop-color="white"/>
</linearGradient>
<linearGradient id="paint13_linear_158_2894" x1="0.463379" y1="44" x2="362.537" y2="44" gradientUnits="userSpaceOnUse">
<stop stop-color="#DC0E62"/>
<stop offset="1" stop-color="white"/>
</linearGradient>
<linearGradient id="paint14_linear_158_2894" x1="0.463379" y1="44" x2="362.537" y2="44" gradientUnits="userSpaceOnUse">
<stop stop-color="#DC0E62"/>
<stop offset="1" stop-color="white"/>
</linearGradient>
<linearGradient id="paint15_linear_158_2894" x1="0.463379" y1="44" x2="362.537" y2="44" gradientUnits="userSpaceOnUse">
<stop stop-color="#DC0E62"/>
<stop offset="1" stop-color="white"/>
</linearGradient>
<linearGradient id="paint16_linear_158_2894" x1="0.463379" y1="44" x2="362.537" y2="44" gradientUnits="userSpaceOnUse">
<stop stop-color="#DC0E62"/>
<stop offset="1" stop-color="white"/>
</linearGradient>
<linearGradient id="paint17_linear_158_2894" x1="0.463379" y1="44" x2="362.537" y2="44" gradientUnits="userSpaceOnUse">
<stop stop-color="#DC0E62"/>
<stop offset="1" stop-color="white"/>
</linearGradient>
<linearGradient id="paint18_linear_158_2894" x1="0.463379" y1="44" x2="362.537" y2="44" gradientUnits="userSpaceOnUse">
<stop stop-color="#DC0E62"/>
<stop offset="1" stop-color="white"/>
</linearGradient>
<linearGradient id="paint19_linear_158_2894" x1="0.463379" y1="44" x2="362.537" y2="44" gradientUnits="userSpaceOnUse">
<stop stop-color="#DC0E62"/>
<stop offset="1" stop-color="white"/>
</linearGradient>
<linearGradient id="paint20_linear_158_2894" x1="0.463379" y1="44" x2="362.537" y2="44" gradientUnits="userSpaceOnUse">
<stop stop-color="#DC0E62"/>
<stop offset="1" stop-color="white"/>
</linearGradient>
<linearGradient id="paint21_linear_158_2894" x1="0.463379" y1="44" x2="362.537" y2="44" gradientUnits="userSpaceOnUse">
<stop stop-color="#DC0E62"/>
<stop offset="1" stop-color="white"/>
</linearGradient>
<linearGradient id="paint22_linear_158_2894" x1="0.463379" y1="44" x2="362.537" y2="44" gradientUnits="userSpaceOnUse">
<stop stop-color="#DC0E62"/>
<stop offset="1" stop-color="white"/>
</linearGradient>
<linearGradient id="paint23_linear_158_2894" x1="0.463379" y1="44" x2="362.537" y2="44" gradientUnits="userSpaceOnUse">
<stop stop-color="#DC0E62"/>
<stop offset="1" stop-color="white"/>
</linearGradient>
</defs>
</svg>
